# xmcd CD database file generated by Grip 3.0.6
# 
# Track frame offsets:
#       150
#       14074
#       30252
# 
# Disc length: 664 seconds
# 
# Revision: 3
# Processed by: cddbd v1.4PL0 Copyright (c) Steve Scherf et al.
# Submitted via: Grip 3.0.6
# 
DISCID=19029603
DTITLE=Bernhardt Auge - Teuto Swing 
DYEAR=1900
DGENRE=Swing
TTITLE0=Teuto Swing (Suffle)
TTITLE1=Christianes Feelings (Ballade)
TTITLE2=Take Five
EXTD=
EXTT0=
EXTT1=
EXTT2=
PLAYORDER=
